HIERARCHY
ROOT Pelvis
{
	OFFSET 0.000000 0.000000 0.000000
	CHANNELS 6 Xposition Yposition Zposition Zrotation Yrotation Xrotation 
	JOINT Left_hip
	{
		OFFSET 0.069463 -0.088608 -0.009542
		CHANNELS 3 Zrotation Yrotation Xrotation
		JOINT Left_knee
		{
			OFFSET 0.030639 -0.359740 -0.005288
			CHANNELS 3 Zrotation Yrotation Xrotation
			JOINT Left_ankle
			{
				OFFSET -0.011068 -0.376034 -0.042462
				CHANNELS 3 Zrotation Yrotation Xrotation
				JOINT Left_foot
				{
					OFFSET 0.023192 -0.053321 0.111332
					CHANNELS 3 Zrotation Yrotation Xrotation
					End Site
					{
						OFFSET 0.000000 0.000000 0.000000
					}
				}
			}
		}
	}
	JOINT Right_hip
	{
		OFFSET -0.067438 -0.088025 -0.006263
		CHANNELS 3 Zrotation Yrotation Xrotation
		JOINT Right_knee
		{
			OFFSET -0.035962 -0.366229 -0.008063
			CHANNELS 3 Zrotation Yrotation Xrotation
			JOINT Right_ankle
			{
				OFFSET 0.013608 -0.375719 -0.040481
				CHANNELS 3 Zrotation Yrotation Xrotation
				JOINT Right_foot
				{
					OFFSET -0.021034 -0.045527 0.114617
					CHANNELS 3 Zrotation Yrotation Xrotation
					End Site
					{
						OFFSET 0.000000 0.000000 0.000000
					}
				}
			}
		}
	}
	JOINT Spine1
	{
		OFFSET -0.002610 0.101823 -0.019986
		CHANNELS 3 Zrotation Yrotation Xrotation
		JOINT Spine2
		{
			OFFSET 0.004114 0.128714 -0.000938
			CHANNELS 3 Zrotation Yrotation Xrotation
			JOINT Spine3
			{
				OFFSET 0.002191 0.048470 0.027684
				CHANNELS 3 Zrotation Yrotation Xrotation
				JOINT Neck
				{
					OFFSET -0.002856 0.198873 -0.044022
					CHANNELS 3 Zrotation Yrotation Xrotation
					JOINT Head
					{
						OFFSET 0.002981 0.062960 0.049860
						CHANNELS 3 Zrotation Yrotation Xrotation
						End Site
						{
							OFFSET 0.000000 0.000000 0.000000
						}
					}
				}
				JOINT Left_collar
				{
					OFFSET 0.073708 0.112550 -0.033440
					CHANNELS 3 Zrotation Yrotation Xrotation
					JOINT Left_shoulder
					{
						OFFSET 0.083291 0.030786 -0.008013
						CHANNELS 3 Zrotation Yrotation Xrotation
						JOINT Left_elbow
						{
							OFFSET 0.245601 -0.011792 -0.027873
							CHANNELS 3 Zrotation Yrotation Xrotation
							JOINT Left_wrist
							{
								OFFSET 0.232258 0.008622 -0.000487
								CHANNELS 3 Zrotation Yrotation Xrotation
								JOINT Left_palm
								{
									OFFSET 0.077300 -0.009457 -0.012851
									CHANNELS 3 Zrotation Yrotation Xrotation
									End Site
									{
										OFFSET 0.000000 0.000000 0.000000
									}
								}
							}
						}
					}
				}
				JOINT Right_collar
				{
					OFFSET -0.075339 0.110574 -0.037874
					CHANNELS 3 Zrotation Yrotation Xrotation
					JOINT Right_shoulder
					{
						OFFSET -0.086522 0.031207 -0.009986
						CHANNELS 3 Zrotation Yrotation Xrotation
						JOINT Right_elbow
						{
							OFFSET -0.237313 -0.011478 -0.019859
							CHANNELS 3 Zrotation Yrotation Xrotation
							JOINT Right_wrist
							{
								OFFSET -0.237599 0.007976 -0.003742
								CHANNELS 3 Zrotation Yrotation Xrotation
								JOINT Right_palm
								{
									OFFSET -0.076920 -0.006943 -0.009920
									CHANNELS 3 Zrotation Yrotation Xrotation
									End Site
									{
										OFFSET 0.000000 0.000000 0.000000
									}
								}
							}
						}
					}
				}
			}
		}
	}
}
MOTION
Frames: 8
Frame Time: 0.100000
-0.499505 0.035533 -0.194504 -174.029586 -4.958584 -34.149768 -4.781873 8.572822 23.195902 -3.261520 -6.591204 -4.930087 4.287991 7.239250 -0.792985 -8.105026 11.988472 -4.572684 -14.589576 -9.136768 18.832280 2.597798 -2.115963 51.550991 13.504232 6.019929 17.541361 12.266334 -5.339697 -11.645482 1.047316 2.731344 18.007116 0.349899 -0.505319 10.219137 0.143835 -0.444557 -3.617383 -4.121798 -6.475284 5.833157 -5.753120 -4.212977 -3.405832 -26.230442 1.265799 -0.998571 -44.932954 -16.890628 -5.389767 33.795039 -20.808155 -60.969430 7.710911 6.318289 -45.577010 -8.819620 -2.086109 3.054875 26.409649 5.164137 -2.794454 48.778263 12.763081 3.995801 -51.567015 21.207420 -85.193504 -18.922400 -10.656211 -41.963104 18.483034 8.828561 -2.691570 
-0.494565 0.026798 -0.170677 -176.447931 -1.819461 -34.786887 -3.958667 8.623763 25.505975 -0.796628 -9.823505 -3.427805 2.252667 7.383516 -1.768301 -6.115546 12.746869 -5.784559 -13.386568 -8.118881 12.192472 -2.949026 -5.485863 54.337435 2.805543 -3.024119 5.203334 15.830502 -6.466882 -9.177928 3.312933 -0.340701 20.658072 -0.375307 0.428176 8.148158 0.371303 -1.248144 -3.245096 -4.882550 -9.110723 4.669695 -6.616594 -4.248803 -4.705304 -27.523243 1.542778 -0.096847 -46.754087 -18.838174 -7.255366 31.510901 -14.449547 -60.724778 4.995080 6.517527 -47.044880 -2.624671 -0.994955 5.939696 25.744361 6.083903 -2.515567 49.896600 13.116646 3.267251 -46.280214 16.003683 -83.278886 -17.321704 -11.145522 -41.446285 11.009119 6.520578 0.184569 
-0.481577 0.016571 -0.143945 -179.368143 3.928081 -34.133865 -2.699977 6.695089 27.127218 1.000484 -12.556693 -3.849376 -0.914529 6.094623 -3.547488 -3.248263 12.676501 -4.680439 -11.072910 -5.915108 12.821543 -6.096482 -7.854013 32.909376 0.025580 -8.997167 -1.169163 13.112163 -7.416199 -4.438893 3.339419 -1.042112 19.842277 0.136594 -0.509648 8.122404 1.371969 -2.197392 -2.908220 -3.590496 -10.463606 4.004238 -4.844658 -5.448136 -4.501282 -28.646138 3.142401 1.967556 -51.579248 -19.031414 -5.264902 37.506244 -17.767325 -60.673057 3.919877 4.925149 -50.085185 0.061358 -1.105778 8.536440 26.703910 4.203243 -2.170350 53.831031 10.601954 4.195827 -51.237535 15.763986 -83.958150 -15.771315 -10.304832 -43.437044 7.996464 5.836176 1.887626 
-0.466449 0.008765 -0.115770 179.680306 9.218926 -32.438077 -2.337049 4.968588 25.964960 0.910122 -15.534357 -2.488193 -0.343453 5.255907 -5.906830 -5.452180 12.502772 -3.468183 -8.928135 0.017129 15.896185 -5.740448 7.860542 9.587796 5.005101 -0.215677 0.683591 9.929082 -7.633884 -2.791169 2.135539 -0.380159 16.973655 0.337085 -1.703891 9.385088 1.108195 -2.323574 -2.688595 -3.287723 -10.974687 3.992791 -2.638231 -7.823480 -4.925505 -29.163695 3.863363 1.188411 -50.671490 -19.350759 -4.589678 37.093538 -17.550256 -61.996628 6.391774 6.075157 -48.872215 -4.264238 -1.676707 9.626676 28.557180 2.585089 -2.456583 54.083404 9.533195 4.712633 -49.330883 15.252377 -83.662660 -16.448349 -11.664277 -44.324507 13.412812 7.512692 -0.890424 
-0.449638 -0.001805 -0.085294 177.901646 13.809216 -32.499333 -0.220946 3.845185 26.800313 1.651083 -18.406447 -2.006869 -2.728349 4.827913 -6.842566 -2.994275 10.881641 -3.024437 -8.917033 -1.846896 20.950443 -4.238412 5.099850 6.050371 5.330659 0.371426 -0.915202 9.203803 -8.394301 -1.258928 1.809176 0.189981 15.206340 0.576279 -2.573204 9.177006 1.420917 -2.441076 -2.631989 -3.228741 -11.633066 5.311792 -1.998726 -9.036522 -3.678124 -28.567355 4.465254 1.401939 -51.493433 -18.606704 -3.827676 38.077158 -18.281563 -61.320460 6.789052 5.521000 -50.093426 -3.551903 -1.263506 10.056969 28.028614 1.599760 -2.763614 53.639193 8.122137 3.614743 -46.676488 15.684404 -80.952050 -15.465217 -11.136679 -45.883714 12.665434 6.969292 0.240121 
-0.426189 -0.008657 -0.063615 177.876962 14.528648 -30.225073 0.797674 2.984123 24.641815 1.939426 -18.087326 -1.403549 -2.898099 4.655396 -7.427902 -2.938993 9.683581 -2.193452 -7.360384 -3.212279 21.748312 -4.545161 3.724582 1.982953 3.610505 0.347345 -2.117638 10.659077 -9.843700 0.161225 1.369064 1.202562 13.740932 0.356368 -2.194760 8.010969 1.529650 -1.843006 -3.214778 -3.323079 -12.633114 6.721584 -0.715422 -9.356264 -3.604328 -28.407548 4.997245 1.412440 -51.023086 -17.484717 -3.687470 40.074428 -19.912611 -61.118189 6.612261 5.062203 -50.424396 -3.707159 -1.265912 10.056262 27.598714 1.839931 -1.962074 53.249920 8.591931 3.027150 -46.828122 16.743957 -79.005282 -14.382563 -10.360662 -47.123353 12.233815 6.888824 0.989521 
-0.406492 -0.012763 -0.046033 177.948427 15.568608 -29.782387 1.361367 1.753664 24.783286 2.427361 -18.551335 -1.542721 -3.922967 5.213118 -7.705642 -1.336319 9.846367 -1.802482 -5.901880 -2.689897 24.703335 -4.566906 3.586086 -2.389021 2.835494 -1.420901 -2.480724 10.488467 -9.673130 1.250459 1.073008 1.577186 13.274628 -0.124965 -2.215668 8.474779 1.354138 -1.657560 -3.134360 -3.185918 -12.761234 6.521228 -0.447657 -9.713096 -3.582408 -28.103083 4.631274 1.642362 -50.173980 -17.228960 -3.587822 41.427928 -20.831633 -61.517830 5.957954 4.274444 -50.769364 -2.824053 -1.003714 9.905215 26.749347 2.860599 -1.830934 53.611225 8.883655 4.023616 -46.949753 17.956701 -77.792818 -13.326001 -9.927475 -48.193922 11.378228 6.382479 1.189237 
-0.389850 -0.014054 -0.037279 177.460067 17.521414 -29.338654 2.260752 1.000230 23.659267 2.687380 -19.280599 -0.838657 -4.618571 4.726657 -8.002854 -0.765143 9.843461 -1.579582 -4.908988 -3.263032 25.477429 -3.997203 2.518713 -3.642947 1.902445 -1.963174 -3.133977 11.156720 -9.892459 2.080064 0.645512 1.492562 13.501549 -0.019712 -2.774412 8.227131 1.603587 -2.110266 -3.180620 -3.015626 -12.855156 6.491006 -0.358709 -9.989818 -3.533662 -28.306080 4.564820 1.986781 -50.469235 -17.504281 -3.214755 42.688150 -21.677824 -61.789139 5.667665 3.977284 -51.755836 -1.880239 -0.960324 10.413127 26.757083 2.815679 -2.144644 53.457611 9.194246 4.600795 -47.162530 19.679522 -76.622245 -12.949550 -9.565947 -48.908511 10.782891 6.150792 2.143931 
